<?xml version="1.0" encoding="utf-8"?>
<svg version="1.1" id="Layer_1" xmlns="http://www.w3.org/2000/svg" xmlns:xlink="http://www.w3.org/1999/xlink" x="0px" y="0px" fill='current'
	 viewBox="0 0 512 512" style="enable-background:new 0 0 512 512;" xml:space="preserve">
<path d="M510.2,378.9c-0.5,0-1-0.1-1.6-0.1c-20.8,0-41.6,0-62.4,0c-0.5,0-0.9,0-1.7,0c0.4-0.4,0.7-0.6,0.9-0.8
	c2.1-1.7,4.2-3.3,6.3-5.1c0.9-0.7,1.7-1.6,2.4-2.5c2.5-2.7,3.5-5.8,3.1-9.5c-0.6-5-1.2-10.1-1.8-15.1c-0.6-4.8-1.2-9.7-1.8-14.5
	c-0.6-4.9-1.2-9.8-1.8-14.6c-0.6-4.8-1.2-9.7-1.8-14.5c-0.6-4.9-1.2-9.8-1.8-14.7c-0.5-4.1-1-8.2-1.5-12.3c-0.6-5-1.2-10-1.9-15
	c-0.5-4.2-1-8.4-1.5-12.6c-0.6-4.9-1.2-9.8-1.8-14.7c-0.5-4.2-1-8.4-1.5-12.6c-0.2-1.3-0.3-2.5-0.7-3.9c-0.2,0.4-0.4,0.7-0.5,1.1
	c-4.4,10.3-8.8,20.7-13.2,31c-9.3,21.8-18.5,43.6-27.9,65.3c-9.4,21.7-19.3,43.1-29.3,64.4c-0.2,0.3-0.3,0.6-0.6,1.1
	c-23.3-52.2-46.5-104.2-69.6-156.3c-0.1,0-0.2,0-0.2,0c-0.1,0.8-0.2,1.6-0.3,2.4c-0.7,6.2-1.4,12.3-2.1,18.5
	c-0.6,5.2-1.2,10.4-1.8,15.6c-0.7,5.9-1.4,11.8-2.1,17.6c-0.6,5.2-1.2,10.4-1.8,15.6c-0.7,5.8-1.4,11.7-2.1,17.5
	c-0.6,5.2-1.2,10.3-1.8,15.5c-0.5,4.5-1.1,9-1.6,13.5c-0.7,6.6-1.5,13.1-1.7,19.7c0,1.9,0.2,3.8,0.4,5.6c0.2,1.7,1.2,3.1,2.3,4.4
	c1.2,1.3,2.6,2.4,4.1,3.3c3.9,2.5,8.1,4,12.4,5.3c0.5,0.2,1.1,0.3,1.6,0.5c0.1,0,0.1,0.1,0.2,0.3c-20.2,0.1-40.3,0.2-60.5,0.3
	c0,0,0-0.1,0-0.1c0.8-0.2,1.7-0.3,2.5-0.5c6.3-1.1,11.2-4.3,14.7-9.8c3.2-5.1,5.2-10.6,6-16.4c0.9-6.1,1.6-12.2,2.5-18.3
	c0.8-6.3,1.7-12.7,2.5-19c0.8-5.8,1.5-11.5,2.3-17.3c0.3-2.7,0.8-5.3,1-8c0.1-1.2,0-2.4-0.1-3.6c-0.3-3.6-1.1-7-2.5-10.3
	c-2.5-5.8-6.7-10-12.5-12.6c-0.4-0.2-0.7-0.3-1.1-0.5c0,0,0-0.1-0.1-0.2c1.2-0.2,2.3-0.4,3.5-0.7c5.8-1.3,10.4-4.5,13.9-9.3
	c2.3-3.2,3.9-6.7,5-10.4c0.4-1.2,0.4-2.5,0.6-3.8c0.9-6.6,1.8-13.2,2.6-19.8c0.8-6.4,1.7-12.8,2.5-19.2c1-7.6,2-15.1,3-22.7
	c0.9-7,1.8-14,2.7-20.9c0.6-4.2,1.1-8.5,1.7-12.7c0-0.2,0.1-0.3,0.1-0.4c0.1,0,0.1-0.1,0.2-0.1c0,0,0.1,0,0.1,0.1c0,0,0,0.1,0.1,0.1
	c0,0.1,0.1,0.1,0.1,0.2c0,0,0,0.1,0.1,0.1c0,0.1,0.1,0.2,0.1,0.3c0.1,0.3,0.2,0.5,0.4,0.8c27,61,54.1,122,81.1,183
	c0,0,0,0.1,0.1,0.1c0,0,0,0.1,0.1,0.1c0,0,0,0.1,0.1,0.1c0,0,0,0.1,0,0.1c0,0,0,0.1,0,0.1c0,0,0,0.1,0.1,0.1c0,0,0.1,0.1,0.1,0.1
	c0,0,0.1,0,0.2,0.1c26.3-61.9,52.7-123.4,79-185.4c0.4,0.9,0.8,2.1,1.1,3.2s0.7,2.9,1.1,4.9c1.4,8.7,2.7,17.3,4,26
	c1,6.6,1.8,13.3,2.7,20c0.9,6.9,1.9,13.9,2.8,20.8c0.9,7,1.8,14,2.8,20.9c1.1,7.8,4.6,14.4,10.7,19.4c3.1,2.5,6.7,3.8,10.6,4.5
	c0.6,0.1,1.2,0.2,2,0.3c-0.4,0.2-0.6,0.4-0.9,0.5c-8.1,3.5-12.8,9.7-14.7,18.2c-0.5,2.1-0.8,4.3-0.9,6.5c-0.1,2,0.2,4.1,0.5,6.1
	c0.6,4.6,1.2,9.3,1.8,13.9c0.6,4.7,1.2,9.4,1.8,14.2c0.6,4.6,1.2,9.2,1.8,13.8c0.7,5.6,1.3,11.2,2.9,16.7c1.7,6.1,4.7,11.6,8.7,16.6
	c2.3,2.8,5.1,5.2,8.3,7c2,1.2,4.3,1.9,6.6,2.5c0.1,0,0.3,0,0.5,0C510.2,378.4,510.2,378.7,510.2,378.9z"/>
<path d="M73,260.1c-0.3,0.1-0.5,0.3-0.8,0.3c-5.2,1.9-9.5,5.1-12.7,9.6c-2.9,4.1-4.3,8.7-3.5,13.7c0.4,2.8,1.2,5.5,1.9,8.2
	c3.3,12.4,8.3,24,15.5,34.7c9.1,13.6,21,24.1,35.7,31.2c6.6,3.2,13.5,5.2,20.8,6.4c7.5,1.3,15,1.6,22.6,1.2c2.8-0.1,5.5-0.3,8.3-0.6
	c2.5-0.3,5-1,7.3-2.1c4.8-2.4,7.5-6.2,7.6-11.6c0.1-6.1,0.1-12.3,0.2-18.4c0.1-12,0.2-24,0.2-36c0-5.9-0.8-11.7-3-17.3
	c-1.8-4.5-4.4-8.5-7.8-12c-3.3-3.3-7.1-5.7-11.5-7.1c-0.4-0.1-0.7-0.2-1-0.6c23.2,0.1,46.4,0.2,69.6,0.3c0,0.1,0,0.2,0,0.2
	c-0.2,0.1-0.4,0.3-0.6,0.4c-7.5,4.1-11.8,10.6-14.1,18.6c-1.2,4.3-1.9,8.6-1.9,13c0,12,0,24,0.1,36c0.1,10,0.3,20,0.4,30
	c0,1.1-0.1,2.2-0.2,3.4c-0.1,1.5-0.9,2.6-2,3.6c-2.9,2.5-6.2,4.2-9.7,5.6c-5.4,2.1-11,3.5-16.7,4.6c-4.6,0.8-9.3,1.5-14,2.1
	c-3.6,0.5-7.3,0.8-11,1c-4.8,0.3-9.6,0.6-14.4,0.6c-5.1,0-10.2-0.3-15.3-0.8c-12.1-1.2-23.8-3.7-35.2-8c-14.9-5.6-28-13.9-39-25.4
	c-9.2-9.7-16-20.8-21-33.2c-3.2-8-5.4-16.2-6.8-24.7c-0.5-2.9-0.7-5.8-1.6-8.6c-1.5-4.7-3.7-9-7.4-12.5c-2.8-2.7-6.2-4.5-9.9-5.6
	c-0.3-0.1-0.6-0.2-1-0.3c1.3-0.4,2.4-0.8,3.5-1.2c6.5-2.5,10.8-7.2,13.5-13.5c1.5-3.5,2.3-7.2,2.9-10.9c3.1-18.7,9.6-35.9,21.1-51.1
	c9.8-13,22.3-22.7,37-29.7c9.4-4.5,19.3-7.5,29.6-9.4c9.4-1.7,19-2.4,28.6-2.3c5.4,0.1,10.8,0.4,16.2,1.1
	c12.7,1.5,25.1,4.5,37.4,7.9c5.7,1.6,11.3,3.3,16.9,4.9c0.4,0.1,0.7,0.2,1.1,0.4c0,0.3,0,0.5,0,0.8c0,7.3-0.1,14.7-0.5,22
	c-0.6,9.8-2.8,19.2-5.8,28.5c0,0.1-0.1,0.3-0.3,0.6c-0.1-1.5-0.2-2.7-0.3-3.9c-0.6-8.4-3.8-15.7-9.1-22.2
	c-6.1-7.5-13.7-13-22.4-17.2c-6.6-3.3-13.6-5.5-20.9-7c-4.1-0.9-8.3-1.6-12.4-1.8c-3.2-0.2-6.3-0.3-9.5-0.2
	c-3.8,0.1-7.5,0.4-11.2,0.9c-22.5,3.1-40,14-51.2,34.1c-4.4,7.9-7.3,16.3-9.3,25.1c-1.4,6.1-2.4,12.2-2.8,18.4
	c-0.6,8.9,2.8,16,10.1,21.2c2.6,1.9,5.5,3.3,8.6,4.2C72.2,259.8,72.5,260,73,260.1z"/>
<path fill="#ff4900" d="M276.8,181.1c-2.4-10.5-10.5-17.9-23.1-17.3c-5.8,0.3-11.2,2.1-16.1,5.2c-0.5,0.3-1,0.6-1.9,1.1
	c0-1.1,0-1.8,0-2.6c0-22.8,0-22.5,0-45.3c0-0.7,0-1.4-0.1-2c-0.4-2.4-1.8-3.7-4.2-3.8c-1.8-0.1-3.6-0.1-5.4,0.1
	c-2,0.1-3.3,1.4-3.7,3.4c-0.1,0.6-0.1,1.2-0.1,1.9c0,50.5,0,72.5,0,123c0,0.6,0,1.1,0.1,1.7c0.2,1.6,1,2.7,3,2.9
	c0.7,0.1,1.6-0.2,2.3-0.5c2.8-1.4,5.3-2.6,8.4-4.5c6.8-4.2,15.5-12.1,22.5-19.2c9.3-9.5,15.1-17.8,17.9-28.3
	C277.6,191.6,278,186.4,276.8,181.1z M262.8,188.2c-0.1,2.8-1.3,7.6-5,13.7c-6,9.7-12.1,16.2-21,23.3c-0.2,0.1-0.4,0.3-0.6,0.4
	c-0.1,0-0.2,0-0.6,0.1c0-0.7,0-1.3,0-2c0-12.8,0-18.5,0-31.3c0-1.3,0.3-2.3,1.1-3.3c3.6-4.8,7.6-7.6,13.3-9.4
	c2.1-0.6,4.2-0.8,6.4-0.5c2,0.2,4,1.4,5,3.1C262.7,184.4,262.9,185.9,262.8,188.2z"/>
</svg>
